# xmcd
#
# Track frame offsets:
#  150
#  13430
#  25640
#  39576
#  49214
#  61436
#  75500
#  88756
#  99826
#  110300
#  122066
#  133816
#  144294
#  155875
#  166253
#  178563
#  189143
#  200440
#  211710
#  225019
#  236189
#  247847
#  259671
#  271305
#  282792
#  295794
#  307957
#  319864
#  334525
#  346569
#
# Disc length: 4759 seconds
#
# Revision: 0
# Processed by: cddbd v1.5.2PL0 Copyright (c) Steve Scherf et al.
# Submitted via: AltoMP3_Maker 3.0
#
DISCID=9112951e
DTITLE=Various Artist - Columbia Hillbilly, Vol. 5
DYEAR=1900
DGENRE=
TTITLE0=Billy Walker - The Record
TTITLE1=Carl Smith - There's a Bottle Where She Used to Be
TTITLE2=Bobby Lord - I'm the Devil Who Made Her That Way
TTITLE3=Charlie Adams - They Can't Make a Devil out of My Angel
TTITLE4=Dusty Owens - The Life You Want to Live
TTITLE5=Chuck Wells - The Barroom Girl
TTITLE6=Jimmy Dickens - I Never Thought It Would Happen to Me
TTITLE7=Neal Burris - Poison Kisses
TTITLE8=Neal Jones - Two Wrongs
TTITLE9=Freddie Hart - Blue
TTITLE10=Stonewall Jackson - Don't Be Angry
TTITLE11=Lefty Frizzell - Your Tommorrows Will Never Come
TTITLE12=Werley Fairburn - I Guess I'm Crazy
TTITLE13=Frankie Miller - What You Do from Now on
TTITLE14=Johnny Hicks - Rainy Night Blues
TTITLE15=Marty Robbins - This Broken Heart of Mine
TTITLE16=Onie Wheeler - A Beggar for Your Love
TTITLE17=Jimmy Johnson - Throwing My Life Away
TTITLE18=Smiley Maxedon - You've Lost Too Much
TTITLE19=Lou Millet - Your Own Heart You Must Mend
TTITLE20=Lee Emerson - A Pair of Broken Hearts
TTITLE21=Jimmy Dickens - Take Me as I Am
TTITLE22=Earl Peterson - The Heart You're Gonna Break
TTITLE23=Tommy Warren - Fading Away
TTITLE24=Neal Burris - You're Stepping Out (to Be with Me)
TTITLE25=Bobby Lord - Something's Missing
TTITLE26=Rocky Porter - I Knew It All Along
TTITLE27=Polly Possum - Don't Talk to Me about Men
TTITLE28=Bonnie Sloan - Don't Call Me a Tramp
TTITLE29=Rose Maddox - When the Sun Goes down
EXTD=
EXTT0=
EXTT1=
EXTT2=
EXTT3=
EXTT4=
EXTT5=
EXTT6=
EXTT7=
EXTT8=
EXTT9=
EXTT10=
EXTT11=
EXTT12=
EXTT13=
EXTT14=
EXTT15=
EXTT16=
EXTT17=
EXTT18=
EXTT19=
EXTT20=
EXTT21=
EXTT22=
EXTT23=
EXTT24=
EXTT25=
EXTT26=
EXTT27=
EXTT28=
EXTT29=
PLAYORDER=
